<svg width="31" height="20" viewBox="0 0 31 20" fill="none" xmlns="http://www.w3.org/2000/svg">
<path d="M16.0524 6.31566H19.2102V9.54378H20.8069C21.5443 9.54378 22.3027 9.41242 23.001 9.17581C23.3441 9.05947 23.7292 8.89756 24.0677 8.69394C23.6219 8.11193 23.3943 7.37703 23.3273 6.65263C23.2363 5.66737 23.4351 4.38493 24.1019 3.61379L24.4339 3.22984L24.8294 3.54781C25.8253 4.34794 26.6629 5.46597 26.8105 6.7405C28.0097 6.38777 29.4176 6.4712 30.4746 7.08125L30.9082 7.33147L30.68 7.77695C29.7861 9.52165 27.9172 10.0621 26.0901 9.96646C23.3561 16.7761 17.4037 20 10.1866 20C6.45795 20 3.03701 18.6062 1.08897 15.298C0.974761 15.0925 0.876954 14.8776 0.773226 14.6666C0.114733 13.2104 -0.103975 11.6152 0.0443946 10.0213L0.0889201 9.54384H2.78924V6.31572H5.9471V3.15786H12.2628V0H16.0523L16.0524 6.31566Z" fill="#394D54"/>
<mask id="mask0_567_110" style="mask-type:luminance" maskUnits="userSpaceOnUse" x="0" y="0" width="31" height="20">
<path d="M6.17973 0.276138V6.62887H3.14147V9.80524H0.597717C0.58692 9.89717 0.578177 9.98931 0.569304 10.0814C0.410325 11.812 0.712436 13.408 1.40655 14.7726L1.6396 15.1912C1.77928 15.4422 1.94222 15.6778 2.11433 15.9077C2.28623 16.1373 2.34713 16.2643 2.45527 16.4169C4.29047 18.4796 7.02623 19.4724 10.1847 19.4724C17.1794 19.4724 23.1157 16.3737 25.7429 9.41251C27.6068 9.60378 29.3948 9.12582 30.2096 7.53517C28.9117 6.78615 27.2434 7.02622 26.2823 7.50928L28.8286 0.276138L18.8852 6.62887H15.7088V0.276138H6.17973Z" fill="white"/>
</mask>
<g mask="url(#mask0_567_110)">
<path d="M12.7892 0.526169H15.5261V3.2631H12.7892V0.526169Z" fill="#20C2EF"/>
<path d="M13.1253 3.03501V0.754135V3.03501ZM13.5357 3.03501V0.754135V3.03501ZM13.9503 3.03501V0.754135V3.03501ZM14.365 3.03501V0.754135V3.03501ZM14.7798 3.03501V0.754135V3.03501ZM15.1901 3.03501V0.754135V3.03501Z" fill="black"/>
<path d="M13.1253 3.03501V0.754135M13.5357 3.03501V0.754135M13.9503 3.03501V0.754135M14.365 3.03501V0.754135M14.7798 3.03501V0.754135M15.1901 3.03501V0.754135" stroke="#394D54" stroke-width="1.56"/>
<path d="M15.9471 3.26297H18.6839V0.526189H15.9471V3.26297Z" fill="#00ACD3"/>
<path d="M16.2831 0.754222V3.0351V0.754222ZM16.6936 0.754222V3.0351V0.754222ZM17.1081 0.754222V3.0351V0.754222ZM17.5229 0.754222V3.0351V0.754222ZM17.9376 0.754222V3.0351V0.754222ZM18.348 0.754222V3.0351V0.754222Z" fill="black"/>
<path d="M16.2831 0.754222V3.0351M16.6936 0.754222V3.0351M17.1081 0.754222V3.0351M17.5229 0.754222V3.0351M17.9376 0.754222V3.0351M18.348 0.754222V3.0351" stroke="#394D54" stroke-width="1.56"/>
<path d="M0.157776 3.68411H2.89463V6.42089H0.157776V3.68411Z" fill="#00ACD3"/>
<path d="M0.157776 6.84189H2.89463V9.57882H0.157776V6.84189Z" fill="#20C2EF"/>
<path d="M0.493835 6.19286V3.91199V6.19286ZM0.904257 6.19286V3.91199V6.19286ZM1.31882 6.19286V3.91199V6.19286ZM1.7336 6.19286V3.91199V6.19286ZM2.14832 6.19286V3.91199V6.19286ZM2.55866 6.19286V3.91199V6.19286Z" fill="black"/>
<path d="M0.493835 6.19286V3.91199M0.904257 6.19286V3.91199M1.31882 6.19286V3.91199M1.7336 6.19286V3.91199M2.14832 6.19286V3.91199M2.55866 6.19286V3.91199" stroke="#394D54" stroke-width="1.56"/>
<path d="M0.493835 9.35073V7.06985V9.35073ZM0.904257 9.35073V7.06985V9.35073ZM1.31882 9.35073V7.06985V9.35073ZM1.7336 9.35073V7.06985V9.35073ZM2.14832 9.35073V7.06985V9.35073ZM2.55866 9.35073V7.06985V9.35073Z" fill="black"/>
<path d="M0.493835 9.35073V7.06985M0.904257 9.35073V7.06985M1.31882 9.35073V7.06985M1.7336 9.35073V7.06985M2.14832 9.35073V7.06985M2.55866 9.35073V7.06985" stroke="#394D54" stroke-width="1.56"/>
<path d="M3.31564 9.57869H6.0525V6.84191H3.31564V9.57869Z" fill="#00ACD3"/>
<path d="M3.31564 6.42091H6.0525V3.68398H3.31564V6.42091Z" fill="#20C2EF"/>
<path d="M3.6517 7.06994V9.35081V7.06994ZM4.06212 7.06994V9.35081V7.06994ZM4.47669 7.06994V9.35081V7.06994ZM4.89147 7.06994V9.35081V7.06994ZM5.30618 7.06994V9.35081V7.06994ZM5.71653 7.06994V9.35081V7.06994Z" fill="black"/>
<path d="M3.6517 7.06994V9.35081M4.06212 7.06994V9.35081M4.47669 7.06994V9.35081M4.89147 7.06994V9.35081M5.30618 7.06994V9.35081M5.71653 7.06994V9.35081" stroke="#394D54" stroke-width="1.56"/>
<path d="M3.6517 3.91207V6.19295V3.91207ZM4.06212 3.91207V6.19295V3.91207ZM4.47669 3.91207V6.19295V3.91207ZM4.89147 3.91207V6.19295V3.91207ZM5.30618 3.91207V6.19295V3.91207ZM5.71653 3.91207V6.19295V3.91207Z" fill="black"/>
<path d="M3.6517 3.91207V6.19295M4.06212 3.91207V6.19295M4.47669 3.91207V6.19295M4.89147 3.91207V6.19295M5.30618 3.91207V6.19295M5.71653 3.91207V6.19295" stroke="#394D54" stroke-width="1.56"/>
<path d="M6.47351 3.68411H9.21037V6.42089H6.47351V3.68411Z" fill="#00ACD3"/>
<path d="M6.47351 6.84189H9.21037V9.57882H6.47351V6.84189Z" fill="#20C2EF"/>
<path d="M6.80957 6.19286V3.91199V6.19286ZM7.21999 6.19286V3.91199V6.19286ZM7.63455 6.19286V3.91199V6.19286ZM8.04934 6.19286V3.91199V6.19286ZM8.46405 6.19286V3.91199V6.19286ZM8.8744 6.19286V3.91199V6.19286Z" fill="black"/>
<path d="M6.80957 6.19286V3.91199M7.21999 6.19286V3.91199M7.63455 6.19286V3.91199M8.04934 6.19286V3.91199M8.46405 6.19286V3.91199M8.8744 6.19286V3.91199" stroke="#394D54" stroke-width="1.56"/>
<path d="M6.80957 9.35073V7.06985V9.35073ZM7.21999 9.35073V7.06985V9.35073ZM7.63455 9.35073V7.06985V9.35073ZM8.04934 9.35073V7.06985V9.35073ZM8.46405 9.35073V7.06985V9.35073ZM8.8744 9.35073V7.06985V9.35073Z" fill="black"/>
<path d="M6.80957 9.35073V7.06985M7.21999 9.35073V7.06985M7.63455 9.35073V7.06985M8.04934 9.35073V7.06985M8.46405 9.35073V7.06985M8.8744 9.35073V7.06985" stroke="#394D54" stroke-width="1.56"/>
<path d="M9.63138 9.57869H12.3682V6.84191H9.63138V9.57869Z" fill="#00ACD3"/>
<path d="M9.63138 6.42091H12.3682V3.68398H9.63138V6.42091Z" fill="#20C2EF"/>
<path d="M9.96744 7.06994V9.35081V7.06994ZM10.3779 7.06994V9.35081V7.06994ZM10.7924 7.06994V9.35081V7.06994ZM11.2072 7.06994V9.35081V7.06994ZM11.6219 7.06994V9.35081V7.06994ZM12.0323 7.06994V9.35081V7.06994Z" fill="black"/>
<path d="M9.96744 7.06994V9.35081M10.3779 7.06994V9.35081M10.7924 7.06994V9.35081M11.2072 7.06994V9.35081M11.6219 7.06994V9.35081M12.0323 7.06994V9.35081" stroke="#394D54" stroke-width="1.56"/>
<path d="M9.96744 3.91207V6.19295V3.91207ZM10.3779 3.91207V6.19295V3.91207ZM10.7924 3.91207V6.19295V3.91207ZM11.2072 3.91207V6.19295V3.91207ZM11.6219 3.91207V6.19295V3.91207ZM12.0323 3.91207V6.19295V3.91207Z" fill="black"/>
<path d="M9.96744 3.91207V6.19295M10.3779 3.91207V6.19295M10.7924 3.91207V6.19295M11.2072 3.91207V6.19295M11.6219 3.91207V6.19295M12.0323 3.91207V6.19295" stroke="#394D54" stroke-width="1.56"/>
<path d="M12.7892 3.68411H15.5261V6.42089H12.7892V3.68411Z" fill="#00ACD3"/>
<path d="M12.7892 6.84189H15.5261V9.57882H12.7892V6.84189Z" fill="#20C2EF"/>
<path d="M13.1253 6.19286V3.91199V6.19286ZM13.5357 6.19286V3.91199V6.19286ZM13.9503 6.19286V3.91199V6.19286ZM14.365 6.19286V3.91199V6.19286ZM14.7798 6.19286V3.91199V6.19286ZM15.1901 6.19286V3.91199V6.19286Z" fill="black"/>
<path d="M13.1253 6.19286V3.91199M13.5357 6.19286V3.91199M13.9503 6.19286V3.91199M14.365 6.19286V3.91199M14.7798 6.19286V3.91199M15.1901 6.19286V3.91199" stroke="#394D54" stroke-width="1.56"/>
<path d="M13.1253 9.35073V7.06985V9.35073ZM13.5357 9.35073V7.06985V9.35073ZM13.9503 9.35073V7.06985V9.35073ZM14.365 9.35073V7.06985V9.35073ZM14.7798 9.35073V7.06985V9.35073ZM15.1901 9.35073V7.06985V9.35073Z" fill="black"/>
<path d="M13.1253 9.35073V7.06985M13.5357 9.35073V7.06985M13.9503 9.35073V7.06985M14.365 9.35073V7.06985M14.7798 9.35073V7.06985M15.1901 9.35073V7.06985" stroke="#394D54" stroke-width="1.56"/>
<path d="M15.9471 9.57869H18.6839V6.84191H15.9471V9.57869Z" fill="#00ACD3"/>
<path d="M15.9471 6.42091H18.6839V3.68398H15.9471V6.42091Z" fill="#20C2EF"/>
<path d="M16.2831 7.06994V9.35081V7.06994ZM16.6936 7.06994V9.35081V7.06994ZM17.1081 7.06994V9.35081V7.06994ZM17.5229 7.06994V9.35081V7.06994ZM17.9376 7.06994V9.35081V7.06994ZM18.348 7.06994V9.35081V7.06994Z" fill="black"/>
<path d="M16.2831 7.06994V9.35081M16.6936 7.06994V9.35081M17.1081 7.06994V9.35081M17.5229 7.06994V9.35081M17.9376 7.06994V9.35081M18.348 7.06994V9.35081" stroke="#394D54" stroke-width="1.56"/>
<path d="M16.2831 3.91207V6.19295V3.91207ZM16.6936 3.91207V6.19295V3.91207ZM17.1081 3.91207V6.19295V3.91207ZM17.5229 3.91207V6.19295V3.91207ZM17.9376 3.91207V6.19295V3.91207ZM18.348 3.91207V6.19295V3.91207Z" fill="black"/>
<path d="M16.2831 3.91207V6.19295M16.6936 3.91207V6.19295M17.1081 3.91207V6.19295M17.5229 3.91207V6.19295M17.9376 3.91207V6.19295M18.348 3.91207V6.19295" stroke="#394D54" stroke-width="1.56"/>
</g>
<mask id="mask1_567_110" style="mask-type:luminance" maskUnits="userSpaceOnUse" x="0" y="0" width="31" height="20">
<path d="M6.17973 0.276138V6.62887H3.14147V9.80524H0.597717C0.58692 9.89717 0.578177 9.98931 0.569304 10.0814C0.410325 11.812 0.712436 13.408 1.40655 14.7726L1.6396 15.1912C1.77928 15.4422 1.94222 15.6778 2.11433 15.9077C2.28623 16.1373 2.34713 16.2643 2.45527 16.4169C4.29047 18.4796 7.02623 19.4724 10.1847 19.4724C17.1794 19.4724 23.1157 16.3737 25.7429 9.41251C27.6068 9.60378 29.3948 9.12582 30.2096 7.53517C28.9117 6.78615 27.2434 7.02622 26.2823 7.50928L28.8286 0.276138L18.8852 6.62887H15.7088V0.276138H6.17973Z" fill="white"/>
</mask>
<g mask="url(#mask1_567_110)">
<path d="M26.2834 7.50993C26.4952 5.8644 25.2637 4.57182 24.4999 3.95815C23.6198 4.97565 23.4831 7.64239 24.8638 8.76515C24.0933 9.44961 22.4695 10.07 20.8069 10.07H0.379415C0.217732 11.8056 0.379415 20.163 0.379415 20.163H30.3477L30.2115 7.53704C28.9135 6.78802 27.2445 7.02687 26.2834 7.50993Z" fill="#17B5EB"/>
</g>
<mask id="mask2_567_110" style="mask-type:luminance" maskUnits="userSpaceOnUse" x="0" y="0" width="31" height="20">
<path d="M6.17973 0.276138V6.62887H3.14147V9.80524H0.597717C0.58692 9.89717 0.578177 9.98931 0.569304 10.0814C0.410325 11.812 0.712436 13.408 1.40655 14.7726L1.6396 15.1912C1.77928 15.4422 1.94222 15.6778 2.11433 15.9077C2.28623 16.1373 2.34713 16.2643 2.45527 16.4169C4.29047 18.4796 7.02623 19.4724 10.1847 19.4724C17.1794 19.4724 23.1157 16.3737 25.7429 9.41251C27.6068 9.60378 29.3948 9.12582 30.2096 7.53517C28.9117 6.78615 27.2434 7.02622 26.2823 7.50928L28.8286 0.276138L18.8852 6.62887H15.7088V0.276138H6.17973Z" fill="white"/>
</mask>
<g mask="url(#mask2_567_110)">
<path d="M0.379425 12.2911V20.163H30.3478V12.2911" fill="black" fill-opacity="0.17"/>
</g>
<mask id="mask3_567_110" style="mask-type:luminance" maskUnits="userSpaceOnUse" x="0" y="0" width="31" height="20">
<path d="M6.17973 0.276138V6.62887H3.14147V9.80524H0.597717C0.58692 9.89717 0.578177 9.98931 0.569304 10.0814C0.410325 11.812 0.712436 13.408 1.40655 14.7726L1.6396 15.1912C1.77928 15.4422 1.94222 15.6778 2.11433 15.9077C2.28623 16.1373 2.34713 16.2643 2.45527 16.4169C4.29047 18.4796 7.02623 19.4724 10.1847 19.4724C17.1794 19.4724 23.1157 16.3737 25.7429 9.41251C27.6068 9.60378 29.3948 9.12582 30.2096 7.53517C28.9117 6.78615 27.2434 7.02622 26.2823 7.50928L28.8286 0.276138L18.8852 6.62887H15.7088V0.276138H6.17973Z" fill="white"/>
</mask>
<g mask="url(#mask3_567_110)">
<path d="M11.0461 19.4573C9.17627 18.5699 8.14988 17.3637 7.57882 16.0469L1.89856 16.2961L4.79872 20.163L11.0461 19.4573Z" fill="#D4EDF1"/>
</g>
<mask id="mask4_567_110" style="mask-type:luminance" maskUnits="userSpaceOnUse" x="0" y="0" width="31" height="20">
<path d="M6.17973 0.276138V6.62887H3.14147V9.80524H0.597717C0.58692 9.89717 0.578177 9.98931 0.569304 10.0814C0.410325 11.812 0.712436 13.408 1.40655 14.7726L1.6396 15.1912C1.77928 15.4422 1.94222 15.6778 2.11433 15.9077C2.28623 16.1373 2.34713 16.2643 2.45527 16.4169C4.29047 18.4796 7.02623 19.4724 10.1847 19.4724C17.1794 19.4724 23.1157 16.3737 25.7429 9.41251C27.6068 9.60378 29.3948 9.12582 30.2096 7.53517C28.9117 6.78615 27.2434 7.02622 26.2823 7.50928L28.8286 0.276138L18.8852 6.62887H15.7088V0.276138H6.17973Z" fill="white"/>
</mask>
<g mask="url(#mask4_567_110)">
<path d="M26.4118 7.44886V7.45317C23.5308 11.1666 19.3985 14.4106 14.9622 16.1148C11.0049 17.635 7.55461 17.6423 5.17418 16.4212C4.91786 16.2765 4.66656 16.1158 4.41462 15.9638C2.66946 14.744 1.68647 12.7264 1.76909 10.0685H0.379425V20.163H30.3478V6.90508H26.8952L26.4118 7.44886Z" fill="black" fill-opacity="0.085"/>
</g>
<path d="M9.7939 14.7713C9.7939 15.1883 9.45589 15.5263 9.03896 15.5263C8.62196 15.5263 8.28387 15.1883 8.28387 14.7713C8.28387 14.3544 8.62196 14.0162 9.03896 14.0162C9.45589 14.0162 9.7939 14.3544 9.7939 14.7713Z" fill="#D4EDF1"/>
<path d="M9.23474 14.267C9.16883 14.3051 9.12424 14.3765 9.12424 14.4582C9.12424 14.58 9.22305 14.6787 9.34494 14.6787C9.42845 14.6787 9.501 14.6323 9.5385 14.5638C9.56498 14.6277 9.5797 14.6978 9.5797 14.7713C9.5797 15.0699 9.33762 15.312 9.03896 15.312C8.74037 15.312 8.49814 15.0699 8.49814 14.7713C8.49814 14.4726 8.74037 14.2304 9.03896 14.2304C9.10804 14.2304 9.17394 14.2434 9.23474 14.267Z" fill="#394D54"/>
</svg>
