<svg width="54" height="20" viewBox="0 0 54 20" fill="none" xmlns="http://www.w3.org/2000/svg">
<path d="M4.04173 6.04726C3.93742 6.04726 3.91135 5.99511 3.9635 5.91688L4.51109 5.21284C4.56324 5.13461 4.69362 5.08246 4.79792 5.08246H14.1069C14.2112 5.08246 14.2373 5.16069 14.1851 5.23891L13.7419 5.91688C13.6897 5.99511 13.5593 6.07333 13.4811 6.07333L4.04173 6.04726Z" fill="white"/>
<path d="M0.104302 8.44514C0 8.44514 -0.0260756 8.39299 0.0260756 8.31477L0.573664 7.61072C0.625815 7.5325 0.756193 7.48035 0.860495 7.48035H12.751C12.8553 7.48035 12.9074 7.55857 12.8814 7.6368L12.6728 8.26262C12.6467 8.36692 12.5424 8.41907 12.4381 8.41907L0.104302 8.44514Z" fill="white"/>
<path d="M6.41461 10.843C6.3103 10.843 6.28423 10.7648 6.33638 10.6866L6.70144 10.0347C6.75359 9.95646 6.85789 9.87823 6.96219 9.87823H12.1773C12.2816 9.87823 12.3338 9.95646 12.3338 10.0608L12.2816 10.6866C12.2816 10.7909 12.1773 10.8691 12.0991 10.8691L6.41461 10.843Z" fill="white"/>
<path d="M33.4811 5.57769C31.8383 5.99471 30.7171 6.30748 29.1004 6.7245C28.7093 6.82876 28.6832 6.85482 28.3442 6.46387C27.9531 6.02078 27.6662 5.73407 27.1186 5.47344C25.4759 4.66545 23.8853 4.90003 22.399 5.86439C20.6258 7.01121 19.7132 8.70537 19.7392 10.8165C19.7653 12.9017 21.1995 14.6219 23.2595 14.9086C25.0326 15.1432 26.5189 14.5176 27.6923 13.1884C27.927 12.9017 28.1356 12.5889 28.3963 12.224C27.4576 12.224 26.2842 12.224 23.3638 12.224C22.8162 12.224 22.6858 11.8852 22.8683 11.4421C23.2073 10.6341 23.8331 9.27877 24.1982 8.60111C24.2764 8.44473 24.4589 8.18409 24.8501 8.18409C26.1799 8.18409 31.0821 8.18409 34.3416 8.18409C34.2894 8.88781 34.2894 9.59154 34.1851 10.2953C33.8983 12.1719 33.1943 13.8921 32.0469 15.4038C30.1695 17.8799 27.7184 19.4176 24.6154 19.8347C22.06 20.1735 19.6871 19.6783 17.601 18.1145C15.6714 16.6549 14.5763 14.7261 14.2894 12.3283C13.9505 9.48728 14.7849 6.93302 16.5059 4.69152C18.3572 2.26757 20.8083 0.729796 23.807 0.182453C26.2581 -0.260634 28.605 0.0260691 30.7171 1.45959C32.0991 2.37182 33.09 3.62289 33.7418 5.1346C33.8983 5.36918 33.794 5.4995 33.4811 5.57769Z" fill="white"/>
<path d="M42.1121 19.9912C39.7392 19.939 37.575 19.2614 35.7497 17.6975C34.2112 16.3683 33.2464 14.6741 32.9335 12.6672C32.4641 9.72197 33.2725 7.11557 35.0456 4.79588C36.9491 2.29374 39.2438 0.990543 42.3468 0.4432C45.0065 -0.0259515 47.5098 0.234688 49.7784 1.77246C51.8383 3.17991 53.116 5.08258 53.455 7.58472C53.8983 11.1034 52.8814 13.9704 50.4563 16.4204C48.7353 18.1667 46.6232 19.2614 44.1982 19.7566C43.4941 19.8869 42.7901 19.913 42.1121 19.9912ZM48.3181 9.46133C48.292 9.1225 48.292 8.86186 48.2399 8.60122C47.7705 6.02089 45.3977 4.5613 42.9205 5.13471C40.4954 5.68205 38.9309 7.21983 38.3572 9.66984C37.8879 11.7028 38.8787 13.7619 40.7562 14.5959C42.1904 15.2215 43.6245 15.1433 45.0065 14.4395C47.0665 13.3709 48.1877 11.7028 48.3181 9.46133Z" fill="white"/>
</svg>
