<svg width="20" height="20" viewBox="0 0 20 20" fill="none" xmlns="http://www.w3.org/2000/svg">
<g clip-path="url(#clip0_567_73)">
<path d="M20 0H0V20H20V0Z" fill="#0E141B"/>
<path d="M13.4349 15.6251C13.8378 16.2828 14.3619 16.7663 15.2889 16.7663C16.0676 16.7663 16.5651 16.3771 16.5651 15.8394C16.5651 15.1949 16.054 14.9667 15.1968 14.5917L14.727 14.3902C13.3708 13.8124 12.4698 13.0886 12.4698 11.5584C12.4698 10.1489 13.5438 9.07587 15.2222 9.07587C16.4171 9.07587 17.2762 9.49174 17.8952 10.5806L16.4317 11.5203C16.1095 10.9425 15.7619 10.7149 15.2222 10.7149C14.6717 10.7149 14.3228 11.0641 14.3228 11.5203C14.3228 12.0841 14.6721 12.3124 15.4784 12.6616L15.9482 12.8628C17.5451 13.5476 18.4467 14.2457 18.4467 15.8152C18.4467 17.5073 17.1175 18.4343 15.3324 18.4343C13.587 18.4343 12.4594 17.6025 11.9076 16.5124L13.4349 15.6251ZM6.79586 15.7879C7.0911 16.3117 7.35967 16.7546 8.00539 16.7546C8.62285 16.7546 9.01237 16.513 9.01237 15.5736V9.18317H10.8917V15.599C10.8917 17.5451 9.75078 18.4308 8.08539 18.4308C6.58062 18.4308 5.7092 17.6521 5.26602 16.7141L6.79586 15.7879Z" fill="#F7DF1E"/>
</g>
<defs>
<clipPath id="clip0_567_73">
<rect width="20" height="20" fill="white"/>
</clipPath>
</defs>
</svg>
