<svg width="21" height="21" viewBox="0 0 21 21" fill="none" xmlns="http://www.w3.org/2000/svg">
<path fill-rule="evenodd" clip-rule="evenodd" d="M12.2926 0.331787C12.1474 0.331787 12.0126 0.3629 11.8881 0.404382C12.1526 0.580684 12.2978 0.814027 12.3704 1.07848C12.3756 1.11478 12.3859 1.14071 12.3911 1.177C12.3963 1.20811 12.4015 1.23923 12.4015 1.27034C12.4222 1.72665 12.2822 1.78369 12.1837 2.05333C12.0333 2.40075 12.0748 2.7741 12.2563 3.07485C12.2719 3.11114 12.2926 3.15263 12.3185 3.18892C12.1215 1.87703 13.2156 1.67998 13.4178 1.27034C13.4334 0.912548 13.1378 0.674021 12.9045 0.508089C12.6815 0.37327 12.4793 0.331787 12.2926 0.331787ZM13.9415 0.627353C13.9208 0.746616 13.9364 0.715504 13.9312 0.777729C13.926 0.819211 13.926 0.871066 13.9208 0.912548C13.9105 0.954031 13.9001 0.995513 13.8845 1.037C13.8742 1.07848 13.8586 1.11996 13.843 1.16145C13.8223 1.20293 13.8067 1.23923 13.786 1.28071C13.7704 1.30146 13.7601 1.32219 13.7445 1.34293C13.7342 1.35849 13.7238 1.37405 13.7134 1.3896C13.6875 1.4259 13.6615 1.4622 13.6356 1.49331C13.6045 1.52442 13.5786 1.56072 13.5423 1.58665V1.59184C13.5112 1.61777 13.4801 1.64888 13.4438 1.6748C13.3349 1.75777 13.2104 1.81999 13.0963 1.89777C13.06 1.9237 13.0237 1.94444 12.9926 1.97556C12.9563 2.00148 12.9252 2.02741 12.8941 2.05852C12.8578 2.08963 12.8319 2.12075 12.8008 2.15704C12.7749 2.18816 12.7437 2.22445 12.723 2.26075C12.6971 2.29705 12.6711 2.33335 12.6504 2.36964C12.6297 2.41112 12.6141 2.44742 12.5934 2.48891C12.5778 2.53039 12.5622 2.56669 12.5519 2.60817C12.5363 2.65484 12.526 2.69632 12.5156 2.73781C12.5104 2.75855 12.5104 2.78447 12.5052 2.80521C12.5 2.82596 12.5 2.8467 12.4949 2.86744C12.4949 2.90892 12.4897 2.95559 12.4897 2.99707C12.4897 3.02818 12.4897 3.0593 12.4949 3.09041C12.4949 3.13189 12.5001 3.17337 12.5104 3.22004C12.5156 3.26152 12.526 3.30301 12.5363 3.34449C12.5519 3.38598 12.5623 3.42746 12.5778 3.46894C12.5882 3.49487 12.6038 3.52079 12.6141 3.54153L11.4215 3.08004C11.2193 3.023 11.0222 2.97115 10.82 2.92448C10.7111 2.89855 10.6022 2.87262 10.4933 2.8467C10.1822 2.78447 9.86588 2.73781 9.54957 2.70669C9.53921 2.70669 9.53402 2.7015 9.52365 2.7015C9.21252 2.67039 8.90659 2.65483 8.59546 2.65483C8.36731 2.65483 8.13915 2.66519 7.91618 2.68076C7.59987 2.70151 7.28356 2.74298 6.96726 2.79484C6.88948 2.8052 6.8117 2.82077 6.73391 2.83632C6.57317 2.86743 6.41761 2.90373 6.26723 2.94003C6.18945 2.96078 6.11167 2.98151 6.03389 3.00225C5.95611 3.03336 5.88352 3.06966 5.81092 3.10077C5.75388 3.1267 5.69684 3.15263 5.6398 3.17855C5.62944 3.18375 5.61905 3.18375 5.61388 3.18892C5.56202 3.21484 5.51535 3.23558 5.46869 3.26151C5.45313 3.26671 5.44276 3.27188 5.43239 3.27707C5.37535 3.303 5.31831 3.33411 5.27164 3.36003C5.23534 3.37559 5.19905 3.39633 5.16794 3.41189C5.15238 3.42225 5.13164 3.43264 5.12127 3.43782C5.0746 3.46374 5.02793 3.48967 4.98645 3.5156C4.93978 3.54152 4.8983 3.56745 4.862 3.59337C4.8257 3.6193 4.7894 3.64004 4.75829 3.66597C4.7531 3.67116 4.74793 3.67116 4.74273 3.67633C4.71162 3.69708 4.67533 3.723 4.64421 3.74893C4.64421 3.74893 4.63902 3.75412 4.63385 3.75929C4.60792 3.78004 4.582 3.80077 4.55607 3.82151C4.54571 3.82671 4.53532 3.83707 4.52496 3.84226C4.49903 3.86301 4.4731 3.88893 4.44718 3.90968C4.44198 3.92004 4.43162 3.92523 4.42643 3.93043C4.39532 3.96154 4.3642 3.98746 4.33309 4.01858C4.3279 4.01858 4.3279 4.02377 4.32273 4.02894C4.29162 4.05487 4.2605 4.08598 4.22939 4.11709C4.2242 4.12228 4.2242 4.12745 4.21903 4.12745C4.1931 4.15338 4.16718 4.17931 4.14125 4.21042C4.13089 4.22078 4.11532 4.23117 4.10495 4.24153C4.07903 4.27264 4.04791 4.30375 4.0168 4.33487C4.01161 4.34523 4.00124 4.35042 3.99605 4.36079C3.95457 4.40228 3.91827 4.44376 3.87679 4.48524C3.87159 4.49044 3.86642 4.4956 3.86123 4.5008C3.77826 4.58895 3.69011 4.6771 3.59678 4.75488C3.50344 4.83785 3.40492 4.91563 3.3064 4.98304C3.20269 5.05563 3.10417 5.11786 2.99527 5.18008C2.89157 5.23712 2.78267 5.28897 2.6686 5.33564C2.5597 5.38231 2.44563 5.42379 2.33155 5.46009C2.11376 5.50676 1.89079 5.59491 1.69893 5.61047C1.65745 5.61047 1.61078 5.62083 1.5693 5.62602C1.52263 5.63638 1.48115 5.64677 1.43967 5.65714C1.39818 5.67269 1.3567 5.68825 1.31522 5.7038C1.27373 5.71936 1.23225 5.7401 1.19077 5.76084C1.15447 5.78677 1.11299 5.80751 1.07669 5.83344C1.04039 5.85936 1.00409 5.89047 0.972981 5.92159C0.936685 5.94752 0.900386 5.98381 0.869274 6.01492C0.838161 6.05122 0.807049 6.08234 0.781123 6.11863C0.755197 6.16011 0.724084 6.19641 0.703342 6.2379C0.677415 6.27419 0.651489 6.31568 0.630747 6.35716C0.609997 6.40383 0.589264 6.44531 0.573708 6.49198C0.558152 6.53346 0.542596 6.58013 0.52704 6.6268C0.516677 6.66828 0.50629 6.70976 0.501113 6.75124C0.501113 6.75644 0.49592 6.76161 0.49592 6.7668C0.485557 6.81347 0.485557 6.8757 0.480364 6.90681C0.47517 6.94311 0.470001 6.97422 0.470001 7.01052C0.470001 7.03127 0.470001 7.05718 0.475195 7.07793C0.480388 7.11422 0.485557 7.14534 0.495944 7.17645C0.506307 7.20756 0.516694 7.23867 0.53224 7.26978V7.27498C0.547797 7.30609 0.568539 7.3372 0.589279 7.36831C0.610029 7.39943 0.630764 7.43054 0.65669 7.46165C0.682616 7.48758 0.713729 7.51869 0.744841 7.54462C0.775954 7.57573 0.807066 7.60166 0.843362 7.62758C0.967812 7.73648 0.998924 7.77277 1.15967 7.85574C1.1856 7.8713 1.21153 7.88167 1.24264 7.89722C1.24783 7.89722 1.253 7.90241 1.25819 7.90241C1.25819 7.91278 1.25819 7.91797 1.26339 7.92834C1.26858 7.96983 1.27894 8.01131 1.28931 8.05279C1.29968 8.09946 1.31524 8.14094 1.3308 8.17724C1.34636 8.20835 1.35673 8.23946 1.37228 8.27058C1.37748 8.28094 1.38264 8.29133 1.38784 8.2965C1.40859 8.33799 1.42932 8.37429 1.45006 8.41058C1.47599 8.44688 1.50192 8.48318 1.52784 8.51948C1.55377 8.55059 1.58488 8.58688 1.61599 8.618C1.6471 8.64911 1.67822 8.67504 1.71452 8.70615C1.71452 8.70615 1.71971 8.71135 1.72488 8.71135C1.75599 8.73727 1.7871 8.7632 1.81822 8.78394C1.85451 8.80987 1.89081 8.83061 1.93229 8.85135C1.96859 8.8721 2.01007 8.89283 2.05156 8.90839C2.08267 8.92395 2.11897 8.93432 2.15526 8.94469C2.16046 8.94989 2.16563 8.94989 2.17601 8.95505C2.19676 8.96025 2.22268 8.96541 2.24342 8.97061C2.22787 9.25062 2.22267 9.51507 2.26417 9.60841C2.31084 9.71211 2.539 9.39581 2.76715 9.03283C2.73604 9.39062 2.7153 9.81063 2.76715 9.93509C2.82419 10.0647 3.13531 9.66026 3.40495 9.21432C7.08138 8.36392 10.4363 10.9047 10.7889 14.493C10.7215 13.933 10.0318 13.6219 9.71554 13.6997C9.55998 14.0834 9.29553 14.576 8.87033 14.8819C8.90663 14.5397 8.89108 14.1871 8.81848 13.8448C8.7044 14.3219 8.48143 14.7678 8.17549 15.1516C7.68288 15.1879 7.19027 14.9493 6.931 14.5915C6.91025 14.576 6.90507 14.5449 6.88952 14.5241C6.87396 14.4878 6.8584 14.4515 6.84803 14.4152C6.83248 14.3789 6.82211 14.3426 6.81692 14.3063C6.81173 14.27 6.81173 14.2338 6.81173 14.1923C6.81173 14.1663 6.81173 14.1404 6.81173 14.1145C6.81692 14.0782 6.82728 14.0419 6.83765 14.0056C6.84802 13.9693 6.8584 13.933 6.87395 13.8967C6.8947 13.8604 6.91025 13.8241 6.93618 13.7878C7.02433 13.5389 7.02433 13.3367 6.86358 13.2174C6.83247 13.1967 6.80136 13.1811 6.76506 13.1656C6.74431 13.1604 6.71839 13.15 6.69765 13.1448C6.68209 13.1396 6.67172 13.1345 6.65617 13.1293C6.61987 13.1189 6.58357 13.1085 6.54727 13.1033C6.51098 13.093 6.47468 13.0878 6.43838 13.0878C6.40208 13.0826 6.3606 13.0774 6.3243 13.0774C6.29838 13.0774 6.27245 13.0826 6.24652 13.0826C6.20504 13.0826 6.16874 13.0878 6.13244 13.0982C6.09615 13.1034 6.05985 13.1085 6.02355 13.1189C5.98726 13.1293 5.95096 13.1397 5.91466 13.1552C5.87836 13.1708 5.84725 13.1863 5.81095 13.2019C5.77984 13.2174 5.74873 13.2382 5.71243 13.2537C4.50424 14.0419 5.22501 15.8879 6.04948 16.422C5.73836 16.479 5.42205 16.5464 5.3339 16.6138C5.3287 16.619 5.32354 16.6242 5.32354 16.6242C5.54651 16.759 5.77985 16.8731 6.02356 16.9716C6.35542 17.0805 6.70803 17.179 6.86359 17.2205V17.2257C7.29397 17.3139 7.72955 17.345 8.1703 17.3191C10.4674 17.1583 12.3497 15.4108 12.6919 13.1085C12.7023 13.1552 12.7127 13.1967 12.7231 13.2434C12.7386 13.3367 12.7594 13.4352 12.7697 13.5337V13.5389C12.7801 13.5856 12.7853 13.6323 12.7905 13.6738V13.6945C12.7957 13.7412 12.8008 13.7878 12.8008 13.8293C12.806 13.8864 12.8112 13.9434 12.8112 14.0004V14.0834C12.8112 14.1093 12.8164 14.1404 12.8164 14.1664C12.8164 14.1975 12.8112 14.2286 12.8112 14.2597V14.3323C12.8112 14.3686 12.806 14.3997 12.806 14.436C12.806 14.4568 12.806 14.4775 12.8008 14.5034C12.8008 14.5397 12.7956 14.576 12.7956 14.6175C12.7904 14.6331 12.7904 14.6486 12.7904 14.6642C12.7852 14.7057 12.7801 14.742 12.7749 14.7834C12.7749 14.799 12.7749 14.8145 12.7697 14.8301C12.7645 14.882 12.7541 14.9286 12.7489 14.9805V14.9857V14.9909C12.7386 15.0375 12.7282 15.0894 12.7178 15.1361V15.1516C12.7074 15.1983 12.6971 15.245 12.6867 15.2916C12.6867 15.2968 12.6815 15.3072 12.6815 15.3124C12.6711 15.359 12.6608 15.4057 12.6452 15.4524V15.4679C12.6296 15.5198 12.6141 15.5665 12.6037 15.6131C12.5985 15.6183 12.5985 15.6235 12.5985 15.6235C12.583 15.6753 12.5674 15.7272 12.5519 15.779C12.5311 15.8309 12.5156 15.8776 12.4948 15.9294C12.4741 15.9813 12.4585 16.0331 12.4378 16.0798C12.417 16.1317 12.3963 16.1783 12.3756 16.2302H12.3704C12.3496 16.2768 12.3289 16.3287 12.3029 16.3754C12.2978 16.3909 12.2926 16.4013 12.2874 16.4117C12.2822 16.4169 12.2822 16.422 12.277 16.4272C11.94 17.1065 11.4422 17.7028 10.8199 18.1695C10.7785 18.1954 10.737 18.2265 10.6955 18.2576C10.6851 18.268 10.6696 18.2732 10.6592 18.2836C10.6229 18.3095 10.5866 18.3354 10.5451 18.3614L10.5607 18.3925H10.5659C10.6385 18.3821 10.7111 18.3717 10.7837 18.3614H10.7888C10.9237 18.3406 11.0585 18.3147 11.1933 18.2888C11.2296 18.2836 11.2711 18.2732 11.3074 18.2628C11.3333 18.2576 11.354 18.2525 11.38 18.2473C11.4163 18.2421 11.4526 18.2317 11.4889 18.2265C11.52 18.2162 11.5511 18.211 11.5822 18.2006C12.1007 18.0762 12.6037 17.905 13.086 17.7028C12.2615 18.828 11.157 19.7355 9.86585 20.3318C10.4622 20.2903 11.0585 20.1918 11.6341 20.0259C13.7238 19.4088 15.4816 18.0036 16.5342 16.1109C16.3216 17.3087 15.8446 18.4495 15.1394 19.4451C15.6423 19.1132 16.1038 18.7295 16.5239 18.2939C17.6854 17.0806 18.4476 15.5405 18.7069 13.8864C18.8832 14.7057 18.9351 15.5509 18.8573 16.3857C22.6011 11.1641 19.1684 5.75054 17.732 4.32456C17.7268 4.3142 17.7217 4.30901 17.7217 4.29864C17.7165 4.30383 17.7165 4.30383 17.7165 4.309C17.7165 4.30381 17.7165 4.30381 17.7113 4.29864C17.7113 4.36086 17.7061 4.42308 17.7009 4.48531C17.6854 4.60457 17.6698 4.71865 17.6491 4.83273C17.6232 4.94681 17.592 5.06088 17.5609 5.17496C17.5246 5.28385 17.4831 5.39793 17.4365 5.50683C17.3898 5.61053 17.338 5.71943 17.2809 5.82313C17.2239 5.92166 17.1617 6.02536 17.0942 6.1187C17.0268 6.21722 16.9542 6.31056 16.8816 6.39871C16.8039 6.49205 16.7209 6.57501 16.6379 6.65798C16.5861 6.70465 16.5394 6.74613 16.4876 6.78761C16.4461 6.82391 16.4098 6.85502 16.3683 6.89132C16.275 6.96391 16.1816 7.03132 16.0779 7.09355C15.9794 7.15577 15.8757 7.218 15.772 7.26985C15.6631 7.3217 15.5542 7.36837 15.4453 7.41504C15.3364 7.45652 15.2223 7.49282 15.1082 7.52393C14.9942 7.55504 14.8749 7.58097 14.7608 7.60171C14.6416 7.62246 14.5223 7.63282 14.4082 7.6432C14.3253 7.64839 14.2423 7.65356 14.1593 7.65356C14.0401 7.65356 13.9208 7.6432 13.8067 7.63281C13.6875 7.62245 13.5682 7.60688 13.4541 7.58096C13.3349 7.56021 13.2208 7.5291 13.1067 7.49281H13.1015C13.2156 7.48244 13.3297 7.47205 13.4437 7.45132C13.563 7.43057 13.6771 7.40466 13.7912 7.37354C13.9052 7.34243 14.0193 7.30613 14.1282 7.26465C14.2423 7.22316 14.3512 7.17131 14.4549 7.11946C14.5638 7.0676 14.6623 7.01057 14.766 6.94834C14.8645 6.88093 14.9631 6.81352 15.0564 6.74093C15.1497 6.66833 15.2379 6.59055 15.3208 6.50759C15.409 6.4298 15.4868 6.34165 15.5646 6.2535C15.6423 6.16017 15.7149 6.06683 15.7823 5.97349C15.7927 5.95794 15.8031 5.9372 15.8135 5.92164C15.8653 5.83867 15.9172 5.75571 15.9638 5.67274C16.0209 5.56903 16.0727 5.46533 16.1194 5.35643C16.1661 5.24754 16.2075 5.13865 16.2438 5.02457C16.2801 4.91568 16.3061 4.8016 16.332 4.68752C16.3527 4.56826 16.3735 4.45418 16.3838 4.3401C16.3942 4.22084 16.4046 4.10158 16.4046 3.9875C16.4046 3.90453 16.3994 3.82157 16.3942 3.7386C16.3839 3.61934 16.3683 3.50526 16.3527 3.39118C16.332 3.27192 16.3061 3.15784 16.275 3.04376C16.2387 2.93487 16.2024 2.82079 16.1609 2.7119C16.1194 2.60301 16.0676 2.49411 16.0157 2.39041C15.9587 2.2867 15.9016 2.18299 15.8394 2.08447C15.772 1.98595 15.7046 1.89261 15.632 1.79927C15.5542 1.71112 15.4764 1.62297 15.3935 1.53482C15.352 1.49334 15.3053 1.44667 15.2586 1.40519C15.0253 1.2237 14.7816 1.05258 14.5379 0.897021C14.5016 0.876272 14.4705 0.860723 14.4342 0.845166C14.263 0.736275 14.1023 0.679205 13.9415 0.627353Z" fill="#E0234E"/>
</svg>
