<svg width="38" height="20" viewBox="0 0 38 20" fill="none" xmlns="http://www.w3.org/2000/svg">
<g clip-path="url(#clip0_567_76)">
<mask id="mask0_567_76" style="mask-type:luminance" maskUnits="userSpaceOnUse" x="0" y="0" width="37" height="20">
<path d="M0.521393 10C0.521393 15.2348 8.5889 19.4786 18.5403 19.4786C28.4917 19.4786 36.5592 15.2348 36.5592 10C36.5592 4.76521 28.4917 0.521376 18.5403 0.521376C8.5889 0.521376 0.521393 4.76521 0.521393 10Z" fill="white"/>
</mask>
<g mask="url(#mask0_567_76)">
<path d="M0.521393 10C0.521393 15.2348 8.5889 19.4786 18.5403 19.4786C28.4917 19.4786 36.5592 15.2348 36.5592 10C36.5592 4.76521 28.4917 0.521376 18.5403 0.521376C8.5889 0.521376 0.521393 4.76521 0.521393 10Z" fill="url(#paint0_radial_567_76)"/>
</g>
<mask id="mask1_567_76" style="mask-type:luminance" maskUnits="userSpaceOnUse" x="-1" y="-1" width="39" height="22">
<path d="M-0.229401 -0.557945H37.3099V20.5579H-0.229401V-0.557945Z" fill="white"/>
</mask>
<g mask="url(#mask1_567_76)">
<path d="M18.5403 18.7749C28.103 18.7749 35.8553 14.8462 35.8553 9.99997C35.8553 5.15381 28.103 1.22508 18.5403 1.22508C8.97758 1.22508 1.22525 5.15381 1.22525 9.99997C1.22525 14.8462 8.97758 18.7749 18.5403 18.7749Z" fill="#777BB3"/>
</g>
<mask id="mask2_567_76" style="mask-type:luminance" maskUnits="userSpaceOnUse" x="-1" y="-1" width="39" height="22">
<path d="M-0.229401 -0.557945H37.3099V20.5579H-0.229401V-0.557945Z" fill="white"/>
</mask>
<g mask="url(#mask2_567_76)">
<path d="M10.3112 11.0879C11.0975 11.0879 11.6845 10.9429 12.056 10.6571C12.4234 10.3742 12.6772 9.88401 12.8102 9.20029C12.9342 8.56121 12.887 8.11497 12.6698 7.87416C12.4478 7.6282 11.9677 7.50346 11.243 7.50346H9.98641L9.28979 11.0879H10.3112ZM6.20126 15.5034C6.14293 15.5034 6.08754 15.4773 6.05045 15.4322C6.0133 15.3872 5.99825 15.3279 6.00939 15.2706L7.8556 5.77163C7.87346 5.6798 7.95395 5.61346 8.04753 5.61346H12.0266C13.2771 5.61346 14.2079 5.953 14.7929 6.62278C15.3811 7.29608 15.5628 8.23724 15.3328 9.42005C15.2392 9.90194 15.0782 10.3495 14.8543 10.7502C14.6302 11.1513 14.334 11.5224 13.9738 11.8535C13.5426 12.2571 13.0546 12.5497 12.5246 12.7219C12.003 12.8918 11.3332 12.9779 10.5337 12.9779H8.92254L8.46242 15.3451C8.44456 15.437 8.36414 15.5034 8.27055 15.5034H6.20126Z" fill="black"/>
<path d="M10.1476 7.69895H11.243C12.1177 7.69895 12.4215 7.89088 12.5248 8.00526C12.696 8.19517 12.7284 8.59559 12.6183 9.16318C12.4946 9.79861 12.2653 10.2491 11.9367 10.5021C11.6003 10.7611 11.0534 10.8924 10.3112 10.8924H9.52695L10.1476 7.69895ZM12.0266 5.41791H8.04747C7.8603 5.41791 7.69939 5.5506 7.66367 5.73432L5.81746 15.2333C5.79518 15.3479 5.82529 15.4665 5.89952 15.5566C5.97381 15.6467 6.08448 15.6989 6.20127 15.6989H8.27049C8.45773 15.6989 8.61864 15.5662 8.65436 15.3825L9.08371 13.1734H10.5337C11.3537 13.1734 12.044 13.084 12.5853 12.9077C13.1419 12.7269 13.6541 12.4202 14.1073 11.9964C14.4822 11.6515 14.791 11.2643 15.025 10.8456C15.259 10.4267 15.4271 9.95965 15.5247 9.4573C15.7668 8.21224 15.5701 7.21524 14.9402 6.49417C14.3163 5.78001 13.336 5.41791 12.0266 5.41791ZM9.05256 11.2834H10.3112C11.1455 11.2834 11.7669 11.1263 12.1752 10.812C12.5836 10.4976 12.859 9.97288 13.0021 9.2376C13.1391 8.53165 13.0767 8.03348 12.815 7.74326C12.553 7.45305 12.0291 7.30791 11.243 7.30791H9.82525L9.05256 11.2834ZM12.0266 5.80894C13.2236 5.80894 14.0968 6.12308 14.6457 6.7514C15.1945 7.37973 15.3598 8.25676 15.1408 9.38274C15.0507 9.84657 14.8983 10.2707 14.6837 10.6548C14.4688 11.0393 14.1882 11.3908 13.8415 11.7096C13.4283 12.0963 12.9693 12.3718 12.4642 12.5359C11.9591 12.7005 11.3158 12.7824 10.5337 12.7824H8.76131L8.27049 15.3078H6.20127L8.04747 5.80894H12.0266Z" fill="white"/>
<path d="M20.0772 12.978C20.0188 12.978 19.9635 12.9519 19.9264 12.9068C19.8892 12.8617 19.8742 12.8025 19.8853 12.7452L20.702 8.54225C20.7797 8.14254 20.7605 7.85565 20.6481 7.73443C20.5793 7.66033 20.3725 7.53605 19.7613 7.53605H18.2817L17.2549 12.8197C17.2371 12.9116 17.1566 12.978 17.063 12.978H15.0101C14.9517 12.978 14.8963 12.9519 14.8592 12.9068C14.8221 12.8617 14.807 12.8024 14.8181 12.7452L16.6643 3.2462C16.6822 3.15437 16.7627 3.08803 16.8563 3.08803H18.9092C18.9676 3.08803 19.0229 3.1141 19.0601 3.15913C19.0972 3.20423 19.1123 3.26347 19.1011 3.32082L18.6556 5.61346H20.2473C21.4598 5.61346 22.282 5.82723 22.7609 6.26701C23.249 6.71566 23.4014 7.43301 23.2137 8.39939L22.3547 12.8197C22.3368 12.9116 22.2564 12.978 22.1628 12.978H20.0772Z" fill="black"/>
<path d="M18.9092 2.89247H16.8563C16.669 2.89247 16.5081 3.02516 16.4724 3.20889L14.6262 12.7078C14.6039 12.8225 14.634 12.941 14.7083 13.0312C14.7826 13.1213 14.8933 13.1734 15.0101 13.1734H17.063C17.2502 13.1734 17.4112 13.0407 17.4469 12.857L18.4429 7.73153H19.7613C20.3715 7.73153 20.4996 7.86187 20.5047 7.86748C20.5417 7.9073 20.5904 8.09174 20.51 8.50493L19.6934 12.7078C19.6711 12.8225 19.7012 12.941 19.7755 13.0312C19.8498 13.1213 19.9604 13.1734 20.0772 13.1734H22.1628C22.3499 13.1734 22.5109 13.0407 22.5466 12.857L23.4055 8.4367C23.6071 7.39908 23.4347 6.62073 22.8932 6.12307C22.3765 5.64855 21.511 5.41791 20.2473 5.41791H18.8927L19.2931 3.35813C19.3153 3.24349 19.2853 3.12488 19.211 3.03481C19.1367 2.94468 19.026 2.89247 18.9092 2.89247ZM18.9092 3.28351L18.4184 5.80894H20.2473C21.398 5.80894 22.1918 6.0098 22.6286 6.411C23.0655 6.81247 23.1963 7.46295 23.0217 8.36214L22.1628 12.7824H20.0772L20.8939 8.57955C20.9868 8.10145 20.9527 7.77533 20.7913 7.60145C20.6299 7.42756 20.2865 7.34049 19.7613 7.34049H18.1205L17.063 12.7824H15.0101L16.8563 3.28351H18.9092Z" fill="white"/>
<path d="M26.462 11.0879C27.2483 11.0879 27.8353 10.9429 28.2067 10.6571C28.5741 10.3742 28.8279 9.88408 28.961 9.20029C29.085 8.56121 29.0378 8.11497 28.8205 7.87416C28.5985 7.6282 28.1184 7.50346 27.3937 7.50346H26.1371L25.4405 11.0879H26.462ZM22.352 15.5034C22.2937 15.5034 22.2383 15.4773 22.2012 15.4322C22.1641 15.3872 22.149 15.3279 22.1601 15.2706L24.0063 5.77163C24.0242 5.6798 24.1047 5.61346 24.1983 5.61346H28.1773C29.4279 5.61346 30.3586 5.953 30.9437 6.62278C31.5319 7.29601 31.7135 8.23717 31.4836 9.42005C31.3898 9.90194 31.2289 10.3495 31.0051 10.7502C30.7809 11.1513 30.4847 11.5224 30.1245 11.8535C29.6933 12.2571 29.2053 12.5497 28.6753 12.7219C28.1538 12.8918 27.4839 12.9779 26.6845 12.9779H25.0732L24.6133 15.3451C24.5953 15.437 24.5149 15.5034 24.4213 15.5034H22.352Z" fill="black"/>
<path d="M26.2983 7.69895H27.3938C28.2684 7.69895 28.5723 7.89088 28.6755 8.00526C28.8468 8.19517 28.8792 8.59559 28.769 9.16311C28.6453 9.79861 28.416 10.2491 28.0875 10.5021C27.751 10.7611 27.2041 10.8924 26.462 10.8924H25.6778L26.2983 7.69895ZM28.1773 5.41791H24.1983C24.0111 5.41791 23.8502 5.5506 23.8145 5.73432L21.9683 15.2333C21.946 15.3479 21.9761 15.4665 22.0503 15.5566C22.1246 15.6467 22.2353 15.6989 22.3521 15.6989H24.4213C24.6085 15.6989 24.7695 15.5662 24.8052 15.3825L25.2345 13.1734H26.6845C27.5045 13.1734 28.1948 13.084 28.7361 12.9077C29.2927 12.7269 29.8049 12.4202 30.2582 11.9962C30.6331 11.6514 30.9418 11.2643 31.1757 10.8456C31.4098 10.4267 31.5779 9.95965 31.6755 9.4573C31.9176 8.21218 31.7209 7.21517 31.0909 6.4941C30.4671 5.78001 29.4868 5.41791 28.1773 5.41791ZM25.2034 11.2834H26.462C27.2963 11.2834 27.9177 11.1263 28.326 10.812C28.7344 10.4976 29.0098 9.97288 29.1529 9.2376C29.2899 8.53165 29.2275 8.03348 28.9658 7.74326C28.7038 7.45305 28.1799 7.30791 27.3938 7.30791H25.976L25.2034 11.2834ZM28.1773 5.80894C29.3744 5.80894 30.2476 6.12308 30.7965 6.7514C31.3454 7.37973 31.5106 8.25676 31.2916 9.38274C31.2015 9.84657 31.049 10.2707 30.8344 10.6548C30.6195 11.0393 30.339 11.3908 29.9923 11.7096C29.5791 12.0963 29.12 12.3718 28.615 12.5359C28.1099 12.7005 27.4666 12.7824 26.6845 12.7824H24.9121L24.4213 15.3078H22.3521L24.1983 5.80894H28.1773Z" fill="white"/>
</g>
</g>
<defs>
<radialGradient id="paint0_radial_567_76" cx="0" cy="0" r="1" gradientUnits="userSpaceOnUse" gradientTransform="translate(11.34 3.85377) scale(23.6614)">
<stop stop-color="#AEB2D5"/>
<stop offset="0.3" stop-color="#AEB2D5"/>
<stop offset="0.75" stop-color="#484C89"/>
<stop offset="1" stop-color="#484C89"/>
</radialGradient>
<clipPath id="clip0_567_76">
<rect width="37.0806" height="20" fill="white"/>
</clipPath>
</defs>
</svg>
