<svg width="24" height="24" viewBox="0 0 24 24" fill="none" xmlns="http://www.w3.org/2000/svg">
<path d="M19.68 1.92004H4.32C2.9952 1.92004 1.92 2.99524 1.92 4.32004V19.68C1.92 21.0048 2.9952 22.08 4.32 22.08H19.68C21.0048 22.08 22.08 21.0048 22.08 19.68V4.32004C22.08 2.99524 21.0048 1.92004 19.68 1.92004ZM8.16 9.60004V18.72H5.28V9.60004H8.16ZM5.28 6.94564C5.28 6.27364 5.856 5.76004 6.72 5.76004C7.584 5.76004 8.1264 6.27364 8.16 6.94564C8.16 7.61764 7.6224 8.16004 6.72 8.16004C5.856 8.16004 5.28 7.61764 5.28 6.94564ZM18.72 18.72H15.84C15.84 18.72 15.84 14.2752 15.84 13.92C15.84 12.96 15.36 12 14.16 11.9808H14.1216C12.96 11.9808 12.48 12.9696 12.48 13.92C12.48 14.3568 12.48 18.72 12.48 18.72H9.6V9.60004H12.48V10.8288C12.48 10.8288 13.4064 9.60004 15.2688 9.60004C17.1744 9.60004 18.72 10.9104 18.72 13.5648V18.72Z" fill="white"/>
</svg>
