<svg width="24" height="24" viewBox="0 0 24 24" fill="none" xmlns="http://www.w3.org/2000/svg">
<path d="M7.19999 5.76001C5.54504 5.76001 3.95787 6.41744 2.78765 7.58766C1.61742 8.75789 0.959991 10.3451 0.959991 12C0.959991 13.655 1.61742 15.2421 2.78765 16.4124C3.95787 17.5826 5.54504 18.24 7.19999 18.24C8.85494 18.24 10.4421 17.5826 11.6123 16.4124C12.7826 15.2421 13.44 13.655 13.44 12C13.44 10.3451 12.7826 8.75789 11.6123 7.58766C10.4421 6.41744 8.85494 5.76001 7.19999 5.76001ZM17.04 6.24001C15.3168 6.24001 13.92 8.81905 13.92 12C13.92 12.5966 13.969 13.1717 14.0602 13.7126C14.1816 14.4341 14.3779 15.0946 14.6323 15.6638C14.7595 15.9485 14.9011 16.2101 15.0552 16.4448C15.3634 16.9142 15.7214 17.2766 16.1122 17.5013C16.4054 17.6693 16.717 17.76 17.04 17.76C17.363 17.76 17.6746 17.6693 17.9678 17.5013C18.3586 17.2766 18.7166 16.9142 19.0248 16.4448C19.1789 16.2101 19.3205 15.9485 19.4477 15.6638C19.7021 15.095 19.8984 14.4341 20.0198 13.7126C20.111 13.1717 20.16 12.5966 20.16 12C20.16 8.81905 18.7632 6.24001 17.04 6.24001ZM21.84 6.72001C21.7157 6.72001 21.5957 6.80305 21.4834 6.95761C21.408 7.06033 21.336 7.19473 21.2683 7.35745C21.2342 7.43857 21.2011 7.52689 21.1694 7.62193C21.1056 7.81153 21.0461 8.02801 20.9918 8.26657C20.8834 8.74417 20.7955 9.31345 20.7346 9.94513C20.7043 10.261 20.6808 10.5926 20.6645 10.9363C20.6481 11.2795 20.64 11.6357 20.64 12C20.64 12.3643 20.6481 12.7205 20.6645 13.0642C20.6803 13.4078 20.7038 13.7395 20.7346 14.0554C20.7955 14.687 20.8834 15.2558 20.9918 15.7339C21.0461 15.973 21.1056 16.189 21.1694 16.3786C21.2011 16.4736 21.2342 16.5619 21.2683 16.643C21.3365 16.8058 21.4085 16.9402 21.4834 17.0429C21.5957 17.197 21.7157 17.28 21.84 17.28C22.5029 17.28 23.04 14.916 23.04 12C23.04 9.08401 22.5029 6.72001 21.84 6.72001Z" fill="#0E141B"/>
</svg>
