<svg width="50" height="50" viewBox="0 0 50 50" fill="none" xmlns="http://www.w3.org/2000/svg">
<path d="M24.9999 2C12.3179 2 1.9999 12.318 1.9999 25C1.9999 28.96 3.0229 32.854 4.9629 36.29L2.0369 46.73C1.9409 47.073 2.0339 47.441 2.2819 47.696C2.4729 47.893 2.7329 48 2.9999 48C3.0799 48 3.1609 47.99 3.2399 47.971L14.1359 45.272C17.4629 47.058 21.2099 48 24.9999 48C37.6819 48 47.9999 37.682 47.9999 25C47.9999 12.318 37.6819 2 24.9999 2ZM36.5699 33.116C36.0779 34.478 33.7179 35.721 32.5839 35.888C31.5659 36.037 30.2779 36.101 28.8639 35.657C28.0069 35.387 26.9069 35.029 25.4979 34.428C19.5749 31.902 15.7069 26.013 15.4109 25.624C15.1159 25.235 12.9999 22.463 12.9999 19.594C12.9999 16.725 14.5249 15.314 15.0669 14.73C15.6089 14.146 16.2479 14 16.6419 14C17.0359 14 17.4289 14.005 17.7739 14.021C18.1369 14.039 18.6239 13.884 19.1029 15.022C19.5949 16.19 20.7759 19.059 20.9219 19.352C21.0699 19.644 21.1679 19.985 20.9719 20.374C20.7759 20.763 20.6779 21.006 20.3819 21.347C20.0859 21.688 19.7619 22.107 19.4959 22.369C19.1999 22.66 18.8929 22.975 19.2369 23.559C19.5809 24.143 20.7659 26.052 22.5219 27.598C24.7769 29.584 26.6799 30.2 27.2699 30.492C27.8599 30.784 28.2049 30.735 28.5489 30.346C28.8929 29.956 30.0249 28.643 30.4179 28.06C30.8109 27.477 31.2049 27.573 31.7469 27.768C32.2889 27.962 35.1919 29.372 35.7819 29.664C36.3719 29.956 36.7659 30.102 36.9139 30.345C37.0619 30.587 37.0619 31.755 36.5699 33.116Z" fill="white"/>
</svg>
